<svg xmlns="http://www.w3.org/2000/svg" width="453.53" height="69.3" viewBox="0 0 453.53 69.3"><path d="M54,31.16a.78.78,0,0,1,0,.16H43.68a9.65,9.65,0,1,0,0,6.67H54a19.62,19.62,0,1,1-2.56-13.52H67.78a34.7,34.7,0,1,0,1.51,10.19,33.63,33.63,0,0,0-.17-3.5Z" fill="#1a9abe"/><path d="M230.76,52.87c-15.09,0-20.77-2.7-20.77-8.74,0-4.85,7.95-8.81,12.29-10.25,8.42-2.8,17.81-4.14,23.51-4.84l-.85-6.74s-10.79,1.92-18.11,4.16c-1.5.44-3.54-1.36-3.57-4.4-.07-4.22-.1-9.95,0-12.34h-6.69l.24,13.19a11.74,11.74,0,0,0,2.43,5.87s-15.26,5-16,15.28a12.07,12.07,0,0,0,5.48,11.12c4.54,3.13,11.83,4,23.33,4,4.53,0,10.28-.18,16.67-.66L248,52A138.8,138.8,0,0,1,230.76,52.87Zm94.52,0c-15.09,0-20.76-2.7-20.76-8.74,0-4.85,7.92-8.81,12.26-10.25,8.45-2.8,17.86-4.14,23.55-4.84l-.86-6.74s-10.78,1.92-18.12,4.16c-1.5.44-3.54-1.36-3.59-4.4-.05-4.22-.1-9.95,0-12.34h-6.68l.21,13.19a11.79,11.79,0,0,0,2.46,5.87s-15.29,5-16.05,15.28a12.07,12.07,0,0,0,5.48,11.12c4.54,3.13,11.85,4,23.33,4,4.52,0,10.3-.18,16.7-.66L342.55,52A138.23,138.23,0,0,1,325.28,52.87Zm-48.5-28.93a109,109,0,0,0-12.51,1.34c-2,.3-11,1.8-13.17,2l1.21,6.55c5.05-1.12,18.76-4,24.11-4,6.44,0,9.53,3.31,9.53,9,0,10.64-9.36,13-27.41,13l1,5.71a91.08,91.08,0,0,0,14.63-.87c4.77-.71,18.42-2.74,18.42-17.85C292.57,27.48,283.55,23.94,276.78,23.94Zm74-2.49h34.92V49.12H350.57v6.25h42V15.18H350.8ZM438.48,30l-6.06,3.56,8.94,15.13c-15.74.9-19.7,1-28.71,1.31a344.63,344.63,0,0,0,12.9-39.31l-7.47-1c-2.63,11.06-5.65,23.77-12.22,40.5-1.46,0-4.42.1-5.74,0l.76,7c15.52-.75,22.28-1,43.76-3l2.84,4.8,6-3.59Zm-306,5.4V9.87H126.6v20.7l-4.89-4.21L118.58,30l8,6.91V61.27h5.86V42l7.25,6.24,3.13-3.65-10.38-8.94Zm34,8.39c.12,7.08-2.18,12-1.86,12.85a3.32,3.32,0,0,0,6.07.2c.36-.7.94-7.24-.59-13Zm-14.76,11c-.66,4.41,3.94,5.2,6,3.89,1.3-.82,5.25-6.5,6.4-14.9H160C156.39,51.24,151.8,53.9,151.67,54.83Zm35-4.63a40.67,40.67,0,0,0-4.15-6.37h-3.68c2.77,5.13,3.42,7.71,3.75,7.89C185.78,53.36,186.66,50.63,186.66,50.2ZM193.09,26h-4.33c.6-4.24.72-5.06,1.32-10.55H170.7c.78-3.12,1.16-5.48,1.47-7.45l-5.87,0A63.07,63.07,0,0,1,165,14.79l-4.75-6.53-6.21,0,5.39,7.19H143.52v5.16h19.94c-3.68,12-10.09,19.54-18.73,25.9,0,0-1.77,4.49,3.1,5.26,1,.15,6.15-5.26,10.09-10.09h32.44c-.35,6.63-1.32,9.54-1.55,10.09A2.75,2.75,0,0,1,186,53.5h-5.89l0-.08a65.62,65.62,0,0,0-3.91-9.62h-3.72c.88,3.07,2.14,10.66,2.18,11s3.4,2.38,4.93-.13l1,4.35H187c5.69,0,8.54-2.51,9.31-22.43H192C192.26,34.58,192.54,32.49,193.09,26Zm-23.8-5.39h14.54c-.19,1.32-.51,4.07-.78,5.39H167.36C168.5,23.12,169,21.58,169.29,20.64Zm17,16H161.77c.76-1.2,1.85-2.9,3.23-5.52h22A35.49,35.49,0,0,1,186.28,36.6Zm-67-24.94H98.74C97.48,24.72,88,32.72,88,32.72a4,4,0,0,0,.87,3.38,4.7,4.7,0,0,0,3,1.31c2.27-2.07,4.52-5.54,6.43-9.06l9.39,8.07A50.63,50.63,0,0,1,90,56a3.67,3.67,0,0,0,.72,3.9C92.34,62,95.28,61,95.28,61,120.54,43.91,119.28,11.66,119.28,11.66Zm-9.6,20.27-9.13-7.84-.18.21c2-4.16,3.31-7.56,3.31-7.56l9.18-.12A47.94,47.94,0,0,1,109.68,31.93ZM236.33,9.68h-5.82V20.43h5.82Zm8.47,0H239V20.43h5.83Z" fill="#102955"/></svg>